<svg width="8325" height="8325" viewBox="0 0 8325 8325" fill="none" xmlns="http://www.w3.org/2000/svg">
<g clip-path="url(#clip0_2690_672)">
<path d="M5169.42 0.189923C4788.76 8.85659 4433.29 80.0566 4086.76 217.39C3780.09 338.723 3499.96 505.39 3246.49 716.99C3135.29 809.79 3023.42 917.79 2924.09 1028.06C2674.76 1304.86 2478.89 1622.86 2343.42 1970.72C2228.76 2265.12 2160.36 2572.19 2139.56 2886.72C2134.22 2967.12 2133.42 2992.86 2133.42 3096.72C2133.42 3196.86 2134.09 3219.26 2138.89 3295.39C2167.29 3750.46 2298.09 4196.86 2521.16 4599.26C2585.42 4715.26 2667.82 4842.86 2742.62 4942.06L2755.16 4958.72L2598.62 5115.39L2442.09 5272.06L2747.16 5577.12L3052.09 5882.06L3208.62 5725.52L3365.16 5568.99L3387.96 5585.92C3635.42 5769.52 3908.22 5913.92 4203.42 6017.79C4467.02 6110.59 4749.42 6167.92 5028.76 6185.26C5104.89 6190.06 5127.29 6190.72 5227.42 6190.72C5331.29 6190.72 5357.02 6189.92 5437.42 6184.59C5899.56 6154.06 6347.56 6020.06 6752.89 5791.39C7053.16 5621.92 7327.02 5398.32 7560.89 5131.66C7879.16 4768.86 8108.49 4332.99 8228.62 3862.06C8276.89 3673.12 8307.02 3479.12 8318.76 3282.72C8325.96 3161.39 8325.96 3029.26 8318.62 2907.39C8284.22 2327.39 8085.29 1765.92 7746.89 1294.06C7551.02 1020.86 7303.29 773.123 7030.09 577.257C6614.22 279.123 6127.29 88.1899 5618.76 24.1899C5533.56 13.3899 5439.29 5.65659 5348.76 2.05659C5313.82 0.723256 5200.36 -0.476744 5169.42 0.189923ZM5338.76 368.723C5635.82 380.99 5918.49 438.457 6194.62 542.59C6631.16 707.39 7017.82 982.457 7321.82 1344.46C7694.36 1788.19 7915.69 2341.52 7952.09 2920.72C7959.16 3034.06 7959.16 3159.52 7951.96 3271.39C7932.22 3581.92 7860.09 3884.72 7737.96 4170.32C7707.29 4241.92 7661.56 4336.19 7625.96 4401.39C7517.69 4599.39 7389.96 4777.12 7234.09 4946.72C7201.69 4982.06 7112.36 5071.26 7078.09 5102.59C6862.22 5300.32 6630.49 5455.39 6374.09 5573.66C5920.89 5782.72 5422.36 5863.26 4923.42 5807.92C4462.22 5756.86 4021.02 5588.06 3643.42 5318.06C3400.22 5144.32 3179.82 4923.92 3006.09 4680.72C2633.56 4159.52 2458.49 3527.92 2507.56 2882.72C2548.62 2342.32 2752.22 1823.79 3090.22 1399.26C3157.42 1314.86 3216.49 1248.86 3297.42 1167.92C3413.56 1051.66 3517.96 962.99 3647.82 870.323C3803.96 758.99 3976.22 662.19 4153.82 586.19C4478.09 447.523 4818.09 374.723 5178.09 366.857C5208.62 366.19 5303.56 367.39 5338.76 368.723Z" fill="#0088CC"/>
<path d="M3904.76 1438.19C3847.82 1444.46 3795.69 1460.19 3746.76 1485.92C3668.89 1526.86 3603.96 1592.19 3564.49 1669.66C3541.56 1714.59 3527.42 1758.46 3519.82 1809.39C3517.56 1824.06 3517.42 1837.52 3517.42 1974.06C3517.42 2090.06 3517.82 2125.66 3519.16 2136.06C3534.89 2254.19 3594.62 2357.52 3688.22 2428.19C3805.29 2516.59 3960.62 2538.86 4099.16 2487.26C4240.22 2434.72 4344.89 2309.39 4371.96 2160.72C4378.62 2124.06 4378.76 2119.92 4378.76 1974.72C4378.76 1832.32 4378.62 1829.39 4372.62 1794.19C4354.09 1685.39 4293.29 1586.86 4203.82 1520.46C4157.96 1486.46 4099.02 1459.52 4042.62 1446.86C4011.02 1439.66 3993.29 1437.79 3953.42 1437.39C3932.89 1437.12 3911.02 1437.52 3904.76 1438.19Z" fill="#0088CC"/>
<path d="M6466.09 1438.19C6447.95 1440.06 6422.89 1444.59 6403.02 1449.66C6244.09 1489.52 6119.82 1619.26 6086.89 1779.66C6078.62 1820.06 6078.75 1815.66 6078.75 1975.39C6078.75 2134.72 6078.62 2130.19 6086.75 2170.72C6112.75 2299.39 6198.89 2410.99 6317.42 2469.39C6353.42 2487.12 6383.69 2497.79 6419.29 2505.26C6551.02 2532.99 6688.35 2498.19 6789.42 2411.26C6805.95 2397.12 6834.22 2367.92 6846.22 2352.72C6889.02 2298.72 6917.82 2237.39 6931.29 2172.19C6940.22 2129.26 6940.09 2131.92 6940.09 1976.06C6940.09 1870.59 6939.69 1831.39 6938.35 1821.39C6931.55 1766.46 6917.15 1718.46 6893.95 1672.72C6828.09 1542.32 6699.82 1453.79 6555.15 1438.72C6533.82 1436.59 6485.42 1436.32 6466.09 1438.19Z" fill="#0088CC"/>
<path d="M5200.62 1791.39C5120.09 1796.59 5040.22 1825.26 4975.56 1872.46C4954.09 1888.19 4939.16 1901.26 4917.42 1923.52C4861.42 1980.99 4822.22 2055.26 4806.09 2134.06C4797.56 2175.66 4797.69 2173.12 4797.16 2316.06C4796.76 2404.86 4797.02 2453.12 4798.09 2466.72C4805.82 2570.32 4846.76 2662.86 4917.56 2736.59C4988.49 2810.59 5081.42 2855.79 5185.02 2866.86C5212.89 2869.79 5262.89 2868.86 5289.42 2864.72C5336.89 2857.52 5375.42 2845.79 5416.09 2826.06C5550.62 2760.86 5641.82 2631.26 5657.42 2482.99C5659.02 2466.72 5659.42 2440.86 5659.42 2330.46C5659.42 2250.99 5658.89 2191.52 5658.09 2182.72C5651.56 2112.19 5627.16 2042.59 5588.62 1984.72C5511.96 1869.79 5392.62 1800.72 5254.76 1791.39C5232.89 1789.92 5223.82 1789.92 5200.62 1791.39Z" fill="#0088CC"/>
<path d="M3523.42 2666.19C3375.15 2681.52 3245.82 2779.79 3191.02 2918.72C3174.22 2961.39 3165.95 2999.52 3163.42 3046.46C3161.69 3076.99 3161.69 3917.12 3163.42 3938.86C3170.62 4031.66 3235.29 4104.46 3326.75 4122.99C3345.02 4126.59 3385.95 4126.32 3404.35 4122.32C3440.89 4114.46 3471.55 4098.72 3500.35 4072.99L3512.75 4061.92V4511.26V4960.59L3532.49 4978.32C3666.35 5099.12 3812.75 5205.26 3968.22 5294.46C3987.95 5305.79 4006.62 5316.32 4009.82 5317.92L4015.55 5320.86L4104.49 5320.32C4189.42 5319.79 4194.09 5319.66 4206.62 5316.99C4250.49 5307.52 4285.02 5289.39 4315.95 5259.52C4347.82 5228.72 4367.82 5192.32 4378.35 5146.72L4381.42 5133.39L4381.69 4786.19L4382.09 4438.86L4371.69 4418.19C4356.22 4387.39 4347.82 4361.39 4341.15 4324.59C4339.15 4312.99 4338.89 4276.46 4338.49 3858.72C4338.09 3540.32 4338.35 3399.39 4339.42 3385.39C4351.55 3217.26 4444.75 3067.92 4590.62 2982.19C4620.49 2964.59 4662.35 2945.92 4692.75 2936.72C4700.49 2934.32 4707.29 2931.92 4707.82 2931.39C4709.42 2930.06 4699.42 2905.79 4688.09 2883.39C4631.82 2772.46 4524.75 2692.86 4402.09 2670.86C4391.42 2668.99 4376.49 2666.86 4368.89 2666.06C4351.69 2664.32 3539.95 2664.59 3523.42 2666.19Z" fill="#0088CC"/>
<path d="M6091.42 2665.66C5991.96 2675.79 5907.42 2716.06 5839.29 2785.66C5810.22 2815.26 5788.76 2844.86 5770.49 2880.06C5761.56 2897.52 5749.42 2924.46 5748.49 2929.39C5748.22 2930.86 5753.82 2933.26 5771.42 2939.26C5817.96 2954.99 5853.42 2972.59 5894.09 2999.92C6020.89 3085.12 6103.02 3223.79 6116.76 3375.39C6117.56 3385.66 6118.09 3542.86 6118.09 3846.99C6118.09 4345.52 6118.49 4315.52 6110.49 4349.39C6103.96 4377.12 6090.22 4411.79 6078.09 4431.66L6074.09 4438.06V4775.12C6074.09 4984.46 6074.62 5116.72 6075.42 5124.46C6085.16 5216.32 6149.69 5291.52 6238.36 5314.19C6261.69 5320.06 6272.62 5320.72 6359.82 5320.72H6442.22L6469.82 5305.12C6634.49 5212.46 6786.22 5103.12 6929.02 4974.19L6944.76 4960.06V4510.99V4061.79L6956.49 4072.72C6982.22 4096.86 7012.89 4112.99 7049.42 4121.52C7064.22 4124.99 7067.42 4125.26 7092.76 4125.26C7115.82 4125.26 7122.09 4124.86 7133.02 4122.46C7174.09 4113.26 7205.69 4095.92 7234.89 4066.86C7263.96 4037.79 7280.76 4006.99 7290.36 3964.99L7293.42 3952.06L7293.82 3503.39C7294.09 3180.59 7293.82 3049.26 7292.76 3035.39C7277.69 2840.86 7125.16 2685.39 6930.22 2666.06C6917.56 2664.86 6103.69 2664.32 6091.42 2665.66Z" fill="#0088CC"/>
<path d="M4818.75 3019.39C4736.62 3025.12 4659.82 3054.99 4595.29 3106.19C4577.29 3120.45 4545.42 3152.32 4531.42 3170.05C4480.62 3234.05 4450.75 3310.59 4444.75 3392.05C4443.69 3406.32 4443.42 3540.45 4443.69 3858.72L4444.09 4305.39L4447.15 4318.72C4461.82 4382.72 4499.02 4431.12 4555.15 4459.25C4571.42 4467.39 4587.02 4472.85 4606.09 4476.85C4626.22 4481.12 4663.29 4481.12 4683.42 4476.85C4721.42 4468.72 4754.89 4451.79 4781.69 4426.85C4787.55 4421.25 4792.89 4416.72 4793.29 4416.72C4793.69 4416.72 4794.22 4658.05 4794.49 4952.99L4794.75 5489.39L4797.69 5501.79C4805.95 5536.19 4819.82 5566.05 4839.42 5591.25C4843.42 5596.45 4847.95 5600.99 4849.42 5601.39C4854.89 5602.72 4910.35 5610.05 4939.42 5613.25C5161.15 5638.19 5364.22 5634.99 5597.29 5603.12L5609.02 5601.52L5616.09 5592.85C5641.15 5561.52 5657.55 5521.65 5661.95 5480.45C5663.02 5471.52 5663.42 5301.79 5663.42 4941.25V4414.99L5673.15 4424.45C5700.49 4451.39 5737.55 4470.45 5776.75 4477.65C5794.75 4480.85 5829.02 4480.85 5846.75 4477.52C5887.15 4470.05 5921.95 4452.19 5951.02 4424.19C5968.35 4407.52 5979.69 4392.59 5989.95 4372.72C5999.02 4354.99 6003.55 4342.99 6008.49 4323.39L6012.09 4309.39L6012.49 3854.72C6012.75 3526.19 6012.49 3395.39 6011.42 3383.39C5999.29 3248.32 5916.49 3125.52 5795.82 3063.65C5749.82 3040.19 5712.09 3028.59 5654.09 3020.45C5645.55 3019.25 5543.95 3018.85 5238.09 3018.59C5015.55 3018.59 4826.89 3018.85 4818.75 3019.39Z" fill="#0088CC"/>
<path d="M1117.29 6344.99C485.022 6977.39 147.688 7315.79 139.822 7325.39C91.4217 7384.59 55.6883 7448.72 32.0883 7518.59C-18.845 7670.19 -8.84499 7835.12 59.955 7978.72C90.2217 8041.66 127.955 8094.72 178.755 8145.39C229.422 8196.19 282.488 8233.92 345.422 8264.19C489.022 8332.99 653.955 8342.99 805.555 8292.06C879.288 8267.26 947.022 8228.59 1006.89 8177.12C1015.69 8169.66 1455.29 7730.86 1984.09 7202.19L2945.42 6240.72L2514.76 5810.06C2277.96 5573.26 2083.82 5379.39 2083.42 5379.39C2083.02 5379.39 1648.36 5813.92 1117.29 6344.99Z" fill="#0088CC"/>
</g>
<defs>
<clipPath id="clip0_2690_672">
<rect width="8325" height="8325" fill="white"/>
</clipPath>
</defs>
</svg>
